<!-- icon666.com - MILLIONS vector ICONS FREE --><svg id="Layer_1" enable-background="new 0 0 48 48" viewBox="0 0 48 48" xmlns="http://www.w3.org/2000/svg"><path d="m16.8 40.9c.28.38.73.6 1.2.6h12 12c.57 0 1.09-.32 1.34-.83s.2-1.12-.14-1.57l-11.33-15.1 11.33-15.1c.34-.45.4-1.06.14-1.57s-.77-.83-1.34-.83h-12-12c-.47 0-.92.22-1.2.6l-12 16c-.4.53-.4 1.27 0 1.8zm13.95-31.4h8.25l-10.2 13.6c-.4.53-.4 1.27 0 1.8l10.2 13.6h-8.25l-10.88-14.5zm-12 0h8.25l-10.2 13.6c-.4.53-.4 1.27 0 1.8l10.2 13.6h-8.25l-10.88-14.5z" fill="#000000" style="fill: rgb(255, 255, 255);"></path></svg>