<svg width="42" height="28" viewBox="0 0 42 28" fill="none" xmlns="http://www.w3.org/2000/svg">
<rect width="42" height="28" fill="#121212"/>
<path d="M14 12.1189C14 11.5135 14 11.2108 14.0813 10.9344C14.1533 10.6896 14.2715 10.4609 14.4295 10.2606C14.6079 10.0343 14.8548 9.85918 15.3486 9.5089L19.1486 6.81333C19.815 6.34055 20.1483 6.10417 20.5114 6.01269C20.8321 5.93189 21.1679 5.93189 21.4886 6.01269C21.8517 6.10417 22.185 6.34055 22.8514 6.81333L26.6514 9.5089C27.1452 9.85918 27.3921 10.0343 27.5705 10.2606C27.7285 10.4609 27.8467 10.6896 27.9187 10.9344C28 11.2108 28 11.5135 28 12.1189V18.3C28 19.4201 28 19.9802 27.782 20.408C27.5903 20.7843 27.2843 21.0903 26.908 21.282C26.4802 21.5 25.9201 21.5 24.8 21.5H17.2C16.0799 21.5 15.5198 21.5 15.092 21.282C14.7157 21.0903 14.4097 20.7843 14.218 20.408C14 19.9802 14 19.4201 14 18.3V12.1189Z" stroke="white" stroke-width="1.5" stroke-linecap="round" stroke-linejoin="round"/>
<path d="M21 16V15.99" stroke="white" stroke-width="2.5" stroke-linecap="round" stroke-linejoin="round"/>
</svg>
