<svg width="16" height="18" viewBox="0 0 16 18" fill="none" xmlns="http://www.w3.org/2000/svg">
<path d="M1 7.11897C1 6.51355 1 6.21083 1.08132 5.93443C1.15333 5.68968 1.27151 5.46097 1.42947 5.26063C1.60786 5.03438 1.85476 4.85924 2.34856 4.50896L6.14856 1.81339C6.81504 1.34062 7.14828 1.10423 7.51141 1.01275C7.83213 0.931949 8.16787 0.931949 8.48859 1.01275C8.85172 1.10423 9.18496 1.34062 9.85144 1.81339L13.6514 4.50896C14.1452 4.85924 14.3921 5.03438 14.5705 5.26063C14.7285 5.46097 14.8467 5.68968 14.9187 5.93443C15 6.21083 15 6.51355 15 7.11897V13.3001C15 14.4202 15 14.9802 14.782 15.408C14.5903 15.7844 14.2843 16.0903 13.908 16.2821C13.4802 16.5001 12.9201 16.5001 11.8 16.5001H4.2C3.0799 16.5001 2.51984 16.5001 2.09202 16.2821C1.71569 16.0903 1.40973 15.7844 1.21799 15.408C1 14.9802 1 14.4202 1 13.3001V7.11897Z" stroke="white" stroke-width="1.5" stroke-linecap="round" stroke-linejoin="round"/>
</svg>
